<svg xmlns="http://www.w3.org/2000/svg" width="918" height="777" viewBox="0 0 918 777">
  <defs>
    <linearGradient id="a" x1=".042%" y1="50.012%" y2="50.012%">
      <stop stop-color="#808080" stop-opacity=".25" offset="0%"/>
      <stop stop-color="#808080" stop-opacity=".12" offset="54%"/>
      <stop stop-color="#808080" stop-opacity=".1" offset="100%"/>
    </linearGradient>
  </defs>
  <g fill="none" transform="translate(0 -1)">
    <ellipse cx="288.13" cy="729.27" fill="#0E8C4D" opacity=".1" rx="176.1" ry="33.36"/>
    <path fill="url(#a)" d="M469.12,349.74 L438.49,329.09 L453.94,306.09 L373.04,299.64 L343.97,322.12 L307.58,301.72 L277.23,305.37 L276.87,297.37 C276.49433,289.029978 275.656376,280.717212 274.36,272.47 C274.49,269.97 274.58,267.1 274.57,263.98 C274.57,250.83 272.79,233.4 264.97,221.78 L266.77,205.6 L252.17,188.35 C254.514646,183.679596 257.188038,179.181613 260.17,174.89 C260.67,174.17 261.17,173.47 261.71,172.79 C280.66,171.42 295.61,155.84 295.61,136.79 C295.61,135.91 295.61,135.03 295.51,134.16 C295.51,133.81 295.44,133.45 295.4,133.1 C297.25,134.1 299.12,135.1 300.99,136.1 C301.34,136.6 301.74,137.1 302.18,137.69 L302.27,137.8 L302.83,138.49 L303.01,138.7 C303.21,138.94 303.42,139.17 303.63,139.41 L303.77,139.57 C304.3,140.16 304.86,140.76 305.46,141.35 C305.531429,141.408124 305.598292,141.471644 305.66,141.54 L306.41,142.24 L306.62,142.43 C307.26,143 307.94,143.55 308.62,144.07 L308.84,144.23 L309.7,144.82 L309.98,145 C310.31,145.2 310.65,145.41 310.98,145.6 L311.1,145.67 C311.49,145.88 311.89,146.08 312.29,146.27 L312.49,146.35 C312.83,146.496667 313.163333,146.636667 313.49,146.77 L313.8,146.88 C314.15,147 314.49,147.11 314.85,147.21 L315.07,147.27 C315.51,147.38 315.95,147.47 316.4,147.54 L316.45,147.54 C316.873729,147.608545 317.301143,147.651954 317.73,147.67 L318.02,147.67 C318.403071,147.690052 318.786929,147.690052 319.17,147.67 L319.42,147.67 C319.899672,147.642376 320.377221,147.585604 320.85,147.5 C323.087443,147.205815 325.23576,146.435149 327.15,145.24 C327.637366,144.914092 328.069487,144.512355 328.43,144.05 C330.43,141.43 328.23,138.56 328.23,138.56 C327.45,136.7 322.39,135.39 322.39,135.39 C322.39,135.39 306.39,128.71 306.39,123.39 C306.39,118.07 302.39,90.47 261.1,84.16 C261.1,84.16 234.24,82.65 226.69,97.03 L226.53,98.71 C224.31,100.1 222.47,102.89 220.28,103.71 C219.33384,103.913217 218.421377,104.24992 217.57,104.71 L217.57,104.52 C217.317183,104.741117 217.109973,105.009471 216.96,105.31 C216.489582,106.246012 216.207578,107.265302 216.13,108.31 C215.90471,109.586165 215.461583,110.814068 214.82,111.94 C214.641126,112.259937 214.440661,112.567315 214.22,112.86 L214.05,113.13 C215.210979,113.220476 216.376757,113.031894 217.45,112.58 C217.280877,113.949095 216.945054,115.292388 216.45,116.58 C217.748206,116.621967 218.951658,115.903022 219.53,114.74 L219.53,114.66 L219.66,114.48 C219.911467,114.017076 220.11904,113.531624 220.28,113.03 L220.17,113.15 C220.37,112.5 220.55,111.84 220.77,111.2 C220.870794,110.839502 221.036877,110.500557 221.26,110.2 C221.801278,109.654334 222.569578,109.398234 223.33,109.51 L222.92,118.18 L223.1,118.18 C222.859134,118.810665 222.564726,119.419554 222.22,120 C220.8,122.3 218.22,123.87 217.27,126.39 C216.86039,127.605422 216.703846,128.891813 216.81,130.17 C216.81,130.92 216.9,131.68 216.96,132.43 L216.96,132.37 C217.1,134.37 217.14,136.27 216.06,137.88 C215.32,138.98 214.13,139.81 213.72,141.06 C213.606584,141.40831 213.555798,141.773965 213.57,142.14 C213.650232,143.23586 213.878991,144.315738 214.25,145.35 C214.254336,145.330235 214.254336,145.309765 214.25,145.29 C214.499408,146.05081 214.55779,146.861299 214.42,147.65 C213.97,149.65 211.54,151.32 211.66,153.23 C211.653139,153.4812 211.690369,153.731657 211.77,153.97 C212.23754,154.902928 213.047138,155.619386 214.03,155.97 C215.571775,156.846734 217.342492,157.237129 219.11,157.09 C219.772468,156.97031 220.413037,156.751167 221.01,156.44 C220.31,158.05 219.59,159.64 218.86,161.15 C218.75,161.39 218.63,161.63 218.51,161.87 C218.51,161.87 212.33,157.74 208.82,166.16 C207.795352,167.909763 207.06243,169.814684 206.65,171.8 C206.474152,172.594161 206.226465,173.370691 205.91,174.12 C204.351735,176.758049 202.019572,178.852806 199.23,180.12 C192.07,183.4 163.15,219.47 162.64,228.81 C162.389714,232.455944 161.773277,236.067461 160.8,239.59 C158.523439,247.885407 157.938508,256.553951 159.08,265.08 C159.43733,267.835473 160.029484,270.555369 160.85,273.21 C163.92,282.54 165.97,299.95 165.97,299.95 L169.29,330.17 C169.166753,334.340921 169.347229,338.51528 169.83,342.66 C166.44,346.53 152.83,362.66 158.03,367.05 C162.03,370.51 169.03,369.94 172.96,369.23 C169.65,377.42 164.44,391.66 163.75,401.44 C162.75,415.91 165.46,435.08 169.75,442.44 C174.04,449.8 188.34,468.68 188.34,468.68 C188.34,468.68 187.67,494.58 192.78,503.99 C197.89,513.4 199.95,532.92 199.95,532.92 C199.95,532.92 204.72,549.4 202.33,555.46 C199.94,561.52 206.76,566.56 199.6,570.59 C192.44,574.62 183.28,665.45 183.28,665.45 C183.28,665.45 179.59,724.98 183.28,728.01 C183.477456,728.153545 183.688457,728.277467 183.91,728.38 L183.91,748.38 C183.91,748.38 181.35,752.58 191.76,753.43 C198.89,754 219.1,755.29 231.09,756.04 L240.38,756.62 C240.38,756.62 262.38,761 272.1,756.62 C281.82,752.24 299.05,752.34 296.49,740.77 C296.150545,739.195474 295.695991,737.647984 295.13,736.14 C292.32,728.96 287.55,728.14 278.76,726.14 C278.25,726.03 277.76,725.93 277.31,725.85 C268.05,724.24 265.01,728.55 259.82,722.94 C255.31,718.09 240.95,712.66 236.06,710.94 C236.18,710.58 236.33,710.23 236.45,709.86 C235.0653,709.625079 233.777416,708.996758 232.74,708.05 L245.99,708.89 L253.88,709.38 C253.88,709.38 272.58,713.11 280.88,709.38 C289.18,705.65 303.78,705.75 301.6,695.92 C301.312843,694.580485 300.928493,693.263668 300.45,691.98 C298.06,685.88 294,685.21 286.53,683.52 C286.1,683.43 285.7,683.34 285.3,683.27 C277.43,681.9 274.85,685.56 270.44,680.8 C266.66,676.74 254.73,672.19 250.44,670.64 C250.44,668.42 247.44,665.26 245.55,662.09 C243.33,658.39 247.43,645.44 247.43,645.44 L249.77,591.71 C250.661105,591.313087 251.603712,591.043771 252.57,590.91 C252.57,590.91 263.15,580.81 260.76,570.05 C260.273032,566.795598 260.019053,563.510579 260,560.22 C263.48,556.99 268.27,552.22 269.63,549.28 C271.85,544.49 269.63,521.28 269.63,521.28 L269.63,432.53 L287.33,434.32 L303.39,435.97 L308.28,436.47 L324.34,438.09 L361.25,441.82 L394.51,435.52 L408.9,432.8 L438.49,427.2 L438.49,354.8 L469.12,349.74 Z M225.51,109.83 L223.45,109.61 C224.13,109.64 224.85,109.77 225.51,109.83 Z"/>
    <path fill="#EFB7B9" d="M397.33,396.75 C387.33,411.06 351.38,403.48 351.38,403.48 L323.52,377.41 L319.77,373.88 L326.06,360.52 C326.06,360.52 328.06,361.07 331.49,362.05 C349.5,367.28 405.77,384.72 397.33,396.75 Z"/>
    <path fill="#000000" d="M331.47,362.05 C330.24,366.33 326.87,372.74 323.52,377.41 L319.77,373.88 L326.06,360.52 C326.06,360.52 328.08,361.07 331.47,362.05 Z" opacity=".1"/>
    <path fill="#DCE6F2" d="M235.92,211.39 C235.92,211.39 210.24,222.78 211.5,250.75 C212.406615,268.769599 214.369991,286.72046 217.38,304.51 C217.38,304.51 212.13,346.6 233.99,357.45 C255.85,368.3 276.08,377.22 276.08,377.22 C276.08,377.22 310.28,380.9 314.53,382.42 C318.78,383.94 332.06,360.7 329.61,357.08 C327.16,353.46 295.77,345.87 291.77,339.83 C287.77,333.79 278.52,330.06 278.52,330.06 C278.52,330.06 268.97,324.28 268.32,319.06 C267.67,313.84 270.19,309.95 270.83,307.66 C271.47,305.37 273.09,283.26 273.09,283.26 C273.09,283.26 283.87,204.56 235.92,211.39 Z"/>
    <path fill="#000000" d="M252.87 303.36C252.87 303.36 217.64 309.26 221.05 321.59 221.05 321.59 233.84 308.28 252.87 303.36zM253.14 308.35C253.14 308.35 233.77 324.16 237.56 324.97 241.35 325.78 253.14 308.35 253.14 308.35zM262.45 313.86C262.45 313.86 257.26 324.49 260.45 323.77 263.64 323.05 262.45 313.86 262.45 313.86z" opacity=".1"/>
    <path fill="#000000" d="M332.77,363.18 L330.63,362.57 C331.24,360.57 331.41,358.95 330.91,358.2 C328.46,354.58 297.09,347 293.1,340.95 C289.11,334.9 279.85,331.18 279.85,331.18 C279.85,331.18 270.3,325.4 269.65,320.18 C269,314.96 271.52,311.07 272.16,308.78 C272.8,306.49 274.42,284.37 274.42,284.37 C274.42,284.37 285.17,205.68 237.22,212.51 C237.22,212.51 211.54,223.91 212.79,251.88 C213.69696,269.900033 215.663693,287.851069 218.68,305.64 C218.68,305.64 213.43,347.73 235.29,358.58 C257.15,369.43 277.38,378.35 277.38,378.35 C277.38,378.35 311.57,382.02 315.83,383.55 C317.44,384.13 320.35,381.14 323.2,377.03 L324.82,378.54 L352.68,404.6 C352.68,404.6 388.63,412.19 398.63,397.88 C407.08,385.84 350.82,368.4 332.77,363.18 Z" opacity=".1"/>
    <path fill="#965D7B" d="M221.14,106.41 C220.161036,106.601371 219.223397,106.963563 218.37,107.48 C217.37,108.31 217.37,109.73 217.12,110.97 C216.826322,112.69493 216.142233,114.329905 215.12,115.75 C216.257916,115.833481 217.399363,115.644954 218.45,115.2 C218.278835,116.568714 217.943073,117.911763 217.45,119.2 C218.722685,119.232373 219.896379,118.51642 220.45,117.37 C220.979124,116.243147 221.397749,115.067648 221.7,113.86 C221.793929,113.4988 221.956931,113.159213 222.18,112.86 C223.1,111.77 224.81,112.26 226.23,112.4 C228.636537,112.602912 230.963918,111.485157 232.31,109.48 C233.82,107.19 233.91,101.33 230.31,100.71 C226.55,100.09 224.21,105.27 221.14,106.41 Z"/>
    <g fill="#000000" opacity=".1" transform="translate(215 107)">
      <path d="M3.27 1.71C3.36 1.22 3.42.71 3.53.22 2.58 1.05 2.53 2.46 2.28 3.71 2.15404148 4.4312152 1.9563947 5.13805369 1.69 5.82 2.47738498 4.56501052 3.01395423 3.16925127 3.27 1.71zM3.59 9.97C4.08797057 8.68331087 4.42388503 7.33965303 4.59 5.97 3.5887398 6.39144108 2.5047081 6.57952229 1.42 6.52 1.10425658 7.22331543.71900854 7.89331202.27 8.52 1.40391174 8.60774069 2.54234426 8.42257396 3.59 7.98 3.42388503 9.34965303 3.08797057 10.6933109 2.59 11.98 3.86200371 12.0098298 5.03442915 11.2946503 5.59 10.15 5.83913582 9.69547204 6.04022203 9.21621657 6.19 8.72 5.59369971 9.55337319 4.61327384 10.0247318 3.59 9.97zM12.37 3.17C10.95 3.03 9.23 2.54 8.31 3.63 8.0909908 3.93165142 7.92837117 4.27044233 7.83 4.63 7.74 4.89 7.66 5.16 7.59 5.43 8.54 4.68 10.08 5.08 11.37 5.21 13.7753384 5.40641638 16.0995967 4.29016078 17.45 2.29 17.7531011 1.8044227 17.9791167 1.27480403 18.12.72 16.7293481 2.44116733 14.5746571 3.35925305 12.37 3.17z"/>
    </g>
    <polygon fill="#DCE6F2" points="251.24 189 266.49 207.34 264.5 225.85 246.07 197"/>
    <polygon fill="#000000" points="266.48 207.34 264.61 224.75 264.49 225.85 247.86 199.81 246.07 197 246.59 196.19 251.23 189 252.26 190.24" opacity=".1"/>
    <path fill="#EFB7B9" d="M274.4,164.17 C269.24,165.65 264.31,170.73 260.02,176.9 C257.120397,181.157105 254.527191,185.615015 252.26,190.24 C250.85,193.06 249.61,195.77 248.58,198.13 L247.86,199.81 C246.12,203.92 245.15,206.67 245.15,206.67 C245.15,206.67 205.65,176.97 211.9,174.97 C214,174.3 216.76,169.8 219.49,164.13 L219.83,163.41 C221.56,159.77 223.26,155.71 224.77,151.89 C227.86,144.04 230.15,137.22 230.15,137.22 C230.15,137.22 290.15,159.67 274.4,164.17 Z"/>
    <path fill="#444053" d="M298.03,135.55 C298.03,135.55 307.15,152.05 319.4,149.8 C331.65,147.55 326.61,140.94 326.61,140.94 L298.03,135.55 Z"/>
    <path fill="#A36468" d="M280.36,706.7 C272.28,710.39 254.01,706.7 254.01,706.7 L246.31,706.22 C236.31,705.58 219.57,704.5 213.65,704.02 C205.01,703.31 207.13,699.77 207.13,699.77 L207.13,678.38 L249.05,667.76 C249.05,667.76 265.62,673.43 270.16,678.38 C274.47,683.1 276.99,679.47 284.68,680.83 C285.06,680.9 285.46,680.98 285.88,681.08 C293.18,682.75 297.14,683.41 299.48,689.46 C299.950221,690.73105 300.327873,692.034451 300.61,693.36 C302.77,703.1 288.43,703.03 280.36,706.7 Z"/>
    <path fill="#000000" d="M299.48,689.46 C297.977879,690.398598 296.398892,691.208163 294.76,691.88 C289.26,694.39 284.03,697.45 278.47,699.82 C272.91,702.19 266.92,703.88 260.9,703.43 C257.75,703.2 254.53,702.43 251.52,703.33 C249.658503,704.048748 247.905255,705.021279 246.31,706.22 C236.31,705.58 219.57,704.5 213.65,704.02 C205.01,703.31 207.13,699.77 207.13,699.77 L207.13,697.27 C207.44,697.27 207.79,697.18 208.19,697.15 C210.259468,697.116925 212.320292,697.424359 214.29,698.06 C218.63,699.24 222.95,700.4 227.29,701.56 C228.011412,698.837739 229.819071,696.531166 232.29,695.18 C234.767138,693.865022 237.547368,693.226879 240.35,693.33 C247.08,693.42 253.45,696.61 260.17,696.93 C262.048748,697.102742 263.940202,696.785777 265.66,696.01 C266.58,695.55 267.39,694.88 268.29,694.37 C269.73035,693.673239 271.252148,693.159255 272.82,692.84 C277.226776,691.743044 281.553506,690.346463 285.77,688.66 C286.97,688.19 288.37,687.34 288.21,686.06 C288,684.36 285.33,684.16 284.63,682.6 C284.379615,682.029727 284.409191,681.37536 284.71,680.83 C285.09,680.9 285.49,680.98 285.91,681.08 C293.18,682.75 297.14,683.41 299.48,689.46 Z" opacity=".1"/>
    <path fill="#A36468" d="M271.82,753.5 C262.32,757.84 240.82,753.5 240.82,753.5 L231.77,752.97 C220.05,752.22 200.31,750.97 193.34,750.38 C183.17,749.54 185.67,745.38 185.67,745.38 L185.67,720.17 L235,707.67 C235,707.67 254.5,714.34 259.84,720.17 C264.91,725.72 267.84,721.45 276.93,723.05 C277.38,723.13 277.85,723.23 278.34,723.34 C286.93,725.34 291.59,726.09 294.34,733.21 C294.896763,734.704829 295.341328,736.239079 295.67,737.8 C298.15,749.26 281.32,749.17 271.82,753.5 Z"/>
    <path fill="#000000" d="M294.32,733.21 C292.552999,734.313611 290.696482,735.266958 288.77,736.06 C282.3,739.01 276.14,742.61 269.6,745.4 C263.06,748.19 256.01,750.17 248.92,749.65 C245.22,749.38 241.43,748.45 237.92,749.53 C235.720679,750.386526 233.650922,751.544244 231.77,752.97 C220.05,752.22 200.31,750.97 193.34,750.38 C183.17,749.54 185.67,745.38 185.67,745.38 L185.67,742.44 C186.084053,742.372386 186.501248,742.32566 186.92,742.3 C189.356144,742.255504 191.782685,742.61712 194.1,743.37 L209.39,747.49 C210.250805,744.278207 212.395405,741.562196 215.32,739.98 C218.234648,738.426248 221.50948,737.673968 224.81,737.8 C232.73,737.91 240.22,741.66 248.13,742.04 C250.332885,742.240946 252.550452,741.872499 254.57,740.97 C255.66,740.42 256.57,739.63 257.67,739.04 C259.361251,738.21179 261.152901,737.60673 263,737.24 C268.157036,735.938656 273.221595,734.295013 278.16,732.32 C279.57,731.76 281.22,730.76 281.03,729.26 C280.78,727.26 277.64,727.02 276.81,725.18 C276.526612,724.507301 276.563386,723.742411 276.91,723.1 C277.36,723.18 277.83,723.28 278.32,723.39 C286.91,725.31 291.57,726.09 294.32,733.21 Z" opacity=".1"/>
    <path fill="#444053" d="M250.32 580.51L247.65 643.34C247.65 643.34 243.65 656.17 245.82 659.84 247.99 663.51 251.65 667.17 250.32 669.34 248.99 671.51 232.99 694.97 227.82 685.97 222.65 676.97 217.55 637.97 217.55 637.97L222.32 589.8 250.32 580.51zM261.9 423.97L269.32 433.89 269.32 520.17C269.32 520.17 271.49 543.17 269.32 547.92 267.15 552.67 256.15 562.17 256.15 562.17L246.9 514.67 248.9 464.42 261.9 423.97z"/>
    <path fill="#000000" d="M250.32 580.51L247.65 643.34C247.65 643.34 243.65 656.17 245.82 659.84 247.99 663.51 251.65 667.17 250.32 669.34 248.99 671.51 232.99 694.97 227.82 685.97 222.65 676.97 217.55 637.97 217.55 637.97L222.32 589.8 250.32 580.51zM261.9 423.97L269.32 433.89 269.32 520.17C269.32 520.17 271.49 543.17 269.32 547.92 267.15 552.67 256.15 562.17 256.15 562.17L246.9 514.67 248.9 464.42 261.9 423.97z" opacity=".1"/>
    <path fill="#444053" d="M269.32,387.17 L269.32,433.84 L260.99,470.17 C260.99,470.17 258.32,557.84 260.65,568.5 C262.98,579.16 252.65,589.17 252.65,589.17 C252.65,589.17 246.65,589.84 246.65,594.5 C246.65,599.16 236.65,612.5 236.65,612.5 L236.98,638.5 C236.98,638.5 241.32,687.17 234.65,696.5 C227.98,705.83 236.98,707.17 236.98,707.17 C228.65,734.5 188.65,728.17 185.04,725.17 C181.43,722.17 185.04,663.17 185.04,663.17 C185.04,663.17 193.98,573.17 200.98,569.17 C207.98,565.17 201.32,560.17 203.65,554.17 C205.98,548.17 201.32,531.84 201.32,531.84 C201.32,531.84 199.32,512.5 194.32,503.17 C189.32,493.84 189.98,468.17 189.98,468.17 C189.98,468.17 175.98,449.5 171.82,442.17 C167.66,434.84 164.98,415.84 165.98,401.5 C166.66,391.81 171.75,377.7 174.98,369.58 C176.53,365.69 177.65,363.17 177.65,363.17 L178.6,363.42 L233.22,377.72 L269.32,387.17 Z"/>
    <path fill="#000000" d="M274.4,164.17 C269.24,165.65 264.31,170.73 260.02,176.9 L258.9,176.9 C246.100583,176.909051 234.274624,170.069069 227.9,158.97 C226.591236,156.710579 225.538083,154.312475 224.76,151.82 C227.85,143.97 230.14,137.15 230.14,137.15 C230.14,137.15 290.15,159.67 274.4,164.17 Z" opacity=".1"/>
    <path fill="#EFB7B9" d="M294.65,139.17 C294.674286,154.164511 285.338816,167.580856 271.270591,172.769402 C257.202367,177.957947 241.391175,173.816021 231.673625,162.396512 C221.956075,150.977004 220.397345,134.706796 227.77,121.65 C228.853742,119.714085 230.11946,117.885824 231.55,116.19 C233.908175,113.380573 236.679857,110.946078 239.77,108.97 C250.38772,102.222726 263.770371,101.552748 275.008893,107.205829 C286.247414,112.85891 293.687516,124.002926 294.6,136.55 C294.62,137.43 294.65,138.3 294.65,139.17 Z"/>
    <path fill="#000000" d="M264.61,224.75 L264.49,225.85 L247.86,199.85 C246.12,203.96 245.15,206.71 245.15,206.71 C245.15,206.71 205.65,176.97 211.9,174.97 C214,174.3 216.76,169.8 219.49,164.13 L219.83,163.41 C222.73,172.05 239.58,189.32 246.59,196.24 C247.4,197.04 248.07,197.7 248.59,198.18 L249.66,199.18 L250.22,199.74 C252.77,202.37 263.53,213.97 264.61,224.75 Z" opacity=".1"/>
    <path fill="#DCE6F2" d="M277.04,312.97 L275.22,371.54 L274.9,381.97 C274.9,381.97 253.34,379.97 233.22,377.77 C217.02,376 201.75,374.09 199.4,372.97 C196.4,371.56 189.97,370.47 184.9,369.78 C180.98,369.25 177.9,368.97 177.9,368.97 C177.9,368.97 176.75,369.31 174.98,369.63 C171.12,370.33 164.34,370.9 160.39,367.47 C155.34,363.08 168.61,347.13 171.92,343.3 L172.65,342.47 L171.4,330.92 L168.15,300.97 C168.15,300.97 166.15,283.72 163.15,274.47 C162.347955,271.840098 161.769235,269.147214 161.42,266.42 C160.305351,257.971709 160.876354,249.386267 163.1,241.16 C164.050049,237.664523 164.652969,234.083852 164.9,230.47 C165.4,221.22 193.65,185.47 200.65,182.22 C203.798916,180.751567 206.332765,178.224796 207.81,175.08 C208.29769,174.091196 208.663694,173.04691 208.9,171.97 C211.9,158.97 219.49,164.13 219.49,164.13 C221.32,174.3 249.65,201.22 249.65,201.22 L250.21,201.78 C253.02,204.66 265.54,218.18 264.65,229.72 C264.472158,234.015095 265.113575,238.304783 266.54,242.36 C272.302523,260.504725 275.615157,279.337978 276.39,298.36 L277.04,312.97 Z"/>
    <path fill="#000000" d="M236.9 243.42C236.9 243.42 229.9 260.42 224.65 263.17 219.4 265.92 239.4 268.97 236.9 243.42zM242.15 275.17C242.15 275.17 226.15 277.17 226.15 280.17 226.15 283.17 242.15 275.17 242.15 275.17zM258.9 294.67C258.9 294.67 235.65 344.17 229.15 345.67 222.65 347.17 258.9 294.67 258.9 294.67zM249.21 203.73L229.98 212.09 206.77 177.03C207.25769 176.041196 207.623694 174.99691 207.86 173.92 210.86 160.92 218.45 166.08 218.45 166.08 220.28 176.25 248.61 203.17 248.61 203.17L249.21 203.73z" opacity=".1"/>
    <path fill="#DCE6F2" d="M250.21,201.73 L230.98,210.09 L207.77,175.03 C208.25769,174.041196 208.623694,172.99691 208.86,171.92 C211.86,158.92 219.45,164.08 219.45,164.08 C221.28,174.25 249.61,201.17 249.61,201.17 L250.21,201.73 Z"/>
    <path fill="#000000" d="M274.9 381.97C274.9 381.97 253.34 379.97 233.22 377.77L269.32 387.22 269.32 398.22C267.74 399.65 266.37 400.39 265.48 400.01 261.32 398.26 227.37 392.76 227.37 392.76 227.37 392.76 207.65 382.76 186.37 370.76 185.853471 370.473849 185.352745 370.160061 184.87 369.82 182.38875 368.135337 180.250725 365.993919 178.57 363.51 174.64 357.82 172.72 350.51 171.89 343.34 171.423388 339.23088 171.249616 335.093776 171.37 330.96 171.473077 326.272703 171.900768 321.598178 172.65 316.97 170.591983 299.044399 169.590253 281.013254 169.65 262.97 169.9 234.97 196.15 224.97 196.15 224.97 244.4 220.72 229.44 298.72 229.44 298.72 229.44 298.72 226.65 320.72 225.89 322.97 225.13 325.22 222.4 328.97 222.77 334.22 223.14 339.47 232.36 345.75 232.36 345.75 232.36 345.75 241.36 349.97 245.07 356.22 247.77 360.83 265.31 367.08 275.22 371.54L274.9 381.97zM291.06 116.97C291.078415 118.617113 290.737141 120.248401 290.06 121.75 289.54735 122.975323 288.952668 124.164687 288.28 125.31 287.227528 127.416785 285.733658 129.272185 283.9 130.75 281.59 132.4 278.67 132.86 275.9 133.53 273.13 134.2 270.25 135.27 268.67 137.63 267.813705 139.147119 267.241019 140.807571 266.98 142.53 266.715093 144.250946 266.027958 145.879456 264.98 147.27 263.857643 148.666421 261.932928 149.127036 260.3 148.39 259.463673 147.826182 258.829476 147.009784 258.49 146.06 257.35 143.49 257.06 140.64 256.6 137.87 256.14 135.1 255.49 132.25 253.79 130.02 252.09 127.79 249.08 126.32 246.41 127.19 244.604256 127.885168 243.15983 129.286261 242.41 131.07 241.671044 132.837293 241.16351 134.692649 240.9 136.59 239.66 143.376667 238.196667 150.123333 236.51 156.83 236.458542 157.104923 236.345743 157.364701 236.18 157.59 235.914146 157.854982 235.555333 158.005683 235.18 158.01 232.94 158.31 230.79 156.74 228.53 156.91 228.297123 156.925511 228.066157 156.962332 227.84 157.02 220.355027 144.011559 221.797211 127.712085 231.45 116.22L231.63 116.17C233.133371 115.636319 234.499554 114.775624 235.63 113.65 237.073557 112.205439 238.410399 110.658043 239.63 109.02L240.43 108.02C242.728559 105.250928 245.346769 102.763628 248.23 100.61 249.017031 99.9652197 249.919832 99.4764855 250.89 99.17 251.720262 99.0082528 252.571151 98.9812404 253.41 99.09 256.863487 99.5045767 260.345174 99.6350145 263.82 99.48 266.241243 99.0993936 268.681601 98.8523532 271.13 98.74 277.46 98.92 282.86 103.39 286.86 108.29 289.01 110.8 290.93 113.69 291.06 116.97z" opacity=".1"/>
    <path fill="#965D7B" d="M223.1,122.6 C221.71,124.88 219.2,126.43 218.26,128.93 C216.88,132.56 219.21,137.08 217.07,140.32 C216.36,141.41 215.19,142.22 214.79,143.47 C214.11,145.58 215.97,147.83 215.49,150 C215.01,152.17 212.15,154 212.91,156.12 C213.359123,157.044572 214.146935,157.760764 215.11,158.12 C216.625252,158.989223 218.36928,159.376397 220.11,159.23 C222.84,158.78 224.87,156.1 227.64,155.9 C229.89,155.74 232.04,157.3 234.28,157.01 C234.655417,156.996938 235.012268,156.843492 235.28,156.58 C235.449936,156.357137 235.563184,156.096324 235.61,155.82 C237.29,149.12 238.756667,142.373333 240.01,135.58 C240.26538,133.682104 240.769721,131.82613 241.51,130.06 C242.265632,128.280232 243.708048,126.881088 245.51,126.18 C248.18,125.32 251.18,126.78 252.89,129.01 C254.6,131.24 255.25,134.09 255.71,136.86 C256.17,139.63 256.46,142.48 257.59,145.05 C257.933355,146.003165 258.570682,146.822585 259.41,147.39 C260.91,148.26 262.93,147.57 264.08,146.27 C265.133524,144.878904 265.821184,143.24571 266.08,141.52 C266.340888,139.800695 266.913619,138.143501 267.77,136.63 C269.35,134.27 272.24,133.2 275,132.53 C277.76,131.86 280.67,131.39 283,129.74 C284.831207,128.263745 286.324748,126.412163 287.38,124.31 C288.86,121.73 290.24,118.93 290.12,115.96 C289.99,112.72 288.07,109.83 286.02,107.31 C282.02,102.41 276.61,97.94 270.28,97.77 C267.830881,97.8724101 265.389957,98.1195078 262.97,98.51 C259.494914,98.666272 256.012848,98.5324751 252.56,98.11 C251.720397,98.0095702 250.870299,98.0399309 250.04,98.2 C249.068702,98.4966336 248.16734,98.9864304 247.39,99.64 C244.503953,101.790044 241.882401,104.273973 239.58,107.04 C238.095461,109.008401 236.485449,110.878954 234.76,112.64 C233.629092,113.767413 232.263267,114.631297 230.76,115.17 C229.76,115.45 228.76,115.25 227.81,115.56 C224.86,116.49 224.47,120.34 223.1,122.6 Z"/>
    <path fill="#000000" d="M319.4,149.79 C311.4,151.26 304.77,144.79 301.1,140.07 C299.972832,138.636536 298.947009,137.126205 298.03,135.55 L325.49,140.73 L326.6,140.94 C326.6,140.94 331.65,147.55 319.4,149.79 Z" opacity=".1"/>
    <g fill="#000000" opacity=".1" transform="translate(212 114)">
      <path d="M3.49 33.14C3.60191065 31.8321808 3.40317683 30.5164258 2.91 29.3 2.91 29.4 2.82 29.5 2.79 29.6 2.36 30.94 2.94 32.33 3.31 33.72 3.38946412 33.5332529 3.44977304 33.3389242 3.49 33.14zM5.87 16.77C5.76711955 18.1527993 5.79390305 19.5421931 5.95 20.92 6.05252989 19.5371911 6.02574703 18.14783 5.87 16.77zM75.32 7.42C74.2675279 9.52678458 72.7736579 11.3821849 70.94 12.86 68.63 14.51 65.72 14.97 62.94 15.64 60.16 16.31 57.29 17.38 55.71 19.74 54.855129 21.2577597 54.2825346 22.9179447 54.02 24.64 53.759535 26.3652468 53.0720398 27.9980478 52.02 29.39 50.87 30.69 48.85 31.39 47.35 30.51 46.5106816 29.9425846 45.8733551 29.1231647 45.53 28.17 44.4 25.6 44.1 22.76 43.65 19.98 43.2 17.2 42.53 14.36 40.83 12.13 39.13 9.9 36.12 8.43 33.45 9.3 31.6461601 9.99814336 30.2027462 11.3982549 29.45 13.18 28.7097206 14.9461303 28.20538 16.8021036 27.95 18.7 26.7033333 25.4933333 25.2366667 32.24 23.55 38.94 23.5031842 39.2163237 23.3899365 39.4771366 23.22 39.7 22.952268 39.9634915 22.5954166 40.1169376 22.22 40.13 19.98 40.42 17.83 38.86 15.58 39.02 12.81 39.22 10.78 41.9 8.05 42.34 6.30863499 42.4961744 4.56169954 42.1083547 3.05 41.23 2.35493192 40.9309541 1.73120457 40.4878691 1.22 39.93.745924922 40.6088479.609542966 41.4676856.85 42.26 1.29047389 43.191012 2.08134572 43.9099864 3.05 44.26 4.56169954 45.1383547 6.30863499 45.5261744 8.05 45.37 10.78 44.93 12.81 42.25 15.58 42.05 17.83 41.89 19.98 43.45 22.22 43.16 22.5954166 43.1469376 22.952268 42.9934915 23.22 42.73 23.3899365 42.5071366 23.5031842 42.2463237 23.55 41.97 25.23 35.3033333 26.6966667 28.5566667 27.95 21.73 28.20538 19.8321036 28.7097206 17.9761303 29.45 16.21 30.2027462 14.4282549 31.6461601 13.0281434 33.45 12.33 36.12 11.46 39.12 12.93 40.83 15.16 42.54 17.39 43.19 20.24 43.65 23.01 44.11 25.78 44.4 28.63 45.53 31.2 45.8733551 32.1531647 46.5106816 32.9725846 47.35 33.54 48.85 34.41 50.87 33.72 52.02 32.42 53.0720398 31.0280478 53.759535 29.3952468 54.02 27.67 54.2825346 25.9479447 54.855129 24.2877597 55.71 22.77 57.29 20.41 60.18 19.35 62.94 18.67 65.7 17.99 68.61 17.54 70.94 15.89 72.7736579 14.4121849 74.2675279 12.5567846 75.32 10.45 76.8 7.88 78.18 5.08 78.06 2.11 78.040322 1.72813478 78.000265 1.34759291 77.94.97 77.4575263 3.25880319 76.5702708 5.44307716 75.32 7.42z"/>
    </g>
    <path fill="#000000" d="M290.1 121.72C292.664436 126.279507 294.184355 131.351595 294.55 136.57 285.64 131.57 277.26 126.08 273.03 124.17 265.66 120.84 238.1 121.34 227.74 121.65 228.823742 119.714085 230.08946 117.885824 231.52 116.19 233.887287 113.378238 236.669218 110.943627 239.77 108.97 248.069177 103.702975 258.170076 102.083232 267.699995 104.491249 277.229914 106.899265 285.348971 113.12282 290.15 121.7L290.1 121.72zM321.9 145.55C317.09 147.03 309.24 144.17 301.1 140.07 299.972832 138.636536 298.947009 137.126205 298.03 135.55L325.49 140.73C327.31 141.97 327.77 143.74 321.9 145.55z" opacity=".1"/>
    <path fill="#444053" d="M261.03,87.05 C261.03,87.05 234.78,85.55 227.4,99.8 L226.21,112.43 L224.21,112.21 L223.81,120.8 C223.81,120.8 263.93,119.05 273.06,123.17 C282.19,127.29 310.56,148.05 321.93,144.55 C333.3,141.05 320.93,137.8 320.93,137.8 C320.93,137.8 305.28,131.17 305.28,125.97 C305.28,120.77 301.4,93.3 261.03,87.05 Z"/>
    <path fill="#000000" d="M210.4 555.25C210.4 555.25 227.15 571.5 234.4 570.25 234.4 570.25 213.9 568.5 210.4 555.25zM206.9 562.78C206.9 562.78 208.4 571.14 212.4 570.32 216.4 569.5 206.9 562.78 206.9 562.78zM233.15 702.5C233.15 702.5 209.37 721 213.38 721.5 217.39 722 233.15 702.5 233.15 702.5z" opacity=".1"/>
    <polygon fill="#0E8C4D" points="264.96 335.33 341.96 322.8 341.96 395.7 268.8 391.87"/>
    <polygon fill="#000000" points="264.96 335.33 341.96 322.8 341.96 395.7 268.8 391.87" opacity=".05"/>
    <polygon fill="#0E8C4D" points="341.96 322.8 434.3 329.71 429.19 393.15 341.96 395.7"/>
    <polygon fill="#000000" points="341.96 322.8 434.3 329.71 429.19 393.15 341.96 395.7" opacity=".1"/>
    <polygon fill="#0E8C4D" points="370.35 300.55 341.96 322.8 434.3 329.71 449.39 306.94"/>
    <polygon fill="#0E8C4D" points="237.08 311.03 306.4 302.59 341.96 322.8 264.96 335.33"/>
    <polygon fill="#0E8C4D" points="358.84 341.73 358.84 441.4 322.77 437.7 307.08 436.1 302.3 435.6 286.62 433.99 264.96 431.77 264.96 335.33 341.95 340.57"/>
    <polygon fill="#0E8C4D" points="434.3 329.71 434.3 426.91 405.39 432.46 391.33 435.16 358.84 441.4 358.84 341.73"/>
    <polygon fill="#000000" points="434.3 329.71 434.3 426.91 405.39 432.46 391.33 435.16 358.84 441.4 358.84 341.73" opacity=".05"/>
    <polygon fill="#0E8C4D" points="237.08 356.31 264.96 335.33 358.84 341.73 345.02 365.01"/>
    <polygon fill="#FFFFFF" points="237.08 356.31 264.96 335.33 358.84 341.73 345.02 365.01" opacity=".1"/>
    <polygon fill="#0E8C4D" points="434.3 329.71 358.84 341.73 383.4 363.73 464.23 350.17"/>
    <polygon fill="#FFFFFF" points="434.3 329.71 358.84 341.73 383.4 363.73 464.23 350.17" opacity=".1"/>
    <polygon fill="#FFFFFF" points="405.39 432.46 391.33 435.16 391.33 414.39 404.5 411.07" opacity=".1"/>
    <polygon fill="#FFFFFF" points="322.77 423.96 322.77 437.7 307.08 436.1 307.08 423.96" opacity=".1"/>
    <polygon fill="#FFFFFF" points="302.3 428.29 302.3 435.6 286.62 433.99 286.62 428.29" opacity=".1"/>
    <path fill="#000000" d="M349.4,416.67 C338.65,430.42 303.15,420.92 303.15,420.92 L276.77,393.4 L273.19,389.67 L280.19,376.67 C280.19,376.67 282.19,377.33 285.53,378.49 C303.21,384.67 358.45,405.1 349.4,416.67 Z" opacity=".1"/>
    <path fill="#EFB7B9" d="M348.4,414.67 C337.65,428.42 302.15,418.92 302.15,418.92 L275.77,391.4 L272.19,387.67 L279.19,374.67 C279.19,374.67 281.19,375.33 284.53,376.49 C302.21,382.67 357.45,403.1 348.4,414.67 Z"/>
    <path fill="#000000" d="M284.49,376.49 C283.03,380.69 279.32,386.91 275.73,391.4 L272.15,387.67 L279.15,374.67 C279.15,374.67 281.16,375.33 284.49,376.49 Z" opacity=".1"/>
    <path fill="#DCE6F2" d="M197.15,220.97 C197.15,220.97 170.9,230.97 170.65,258.97 C170.590253,277.013254 171.591983,295.044399 173.65,312.97 C173.65,312.97 166.15,354.72 187.4,366.72 C208.65,378.72 228.4,388.72 228.4,388.72 C228.4,388.72 262.35,394.22 266.52,395.97 C270.69,397.72 285.18,375.22 282.93,371.47 C280.68,367.72 249.77,358.47 246.1,352.22 C242.43,345.97 233.39,341.76 233.39,341.76 C233.39,341.76 224.17,335.47 223.8,330.22 C223.43,324.97 226.15,321.22 226.92,318.97 C227.69,316.72 230.48,294.72 230.48,294.72 C230.48,294.72 245.4,216.67 197.15,220.97 Z"/>
    <path fill="#000000" d="M209.15 313.67C209.15 313.67 173.65 317.67 176.4 330.17 176.4 330.17 189.89 317.56 209.15 313.67zM209.15 318.67C209.15 318.67 189 333.42 192.7 334.42 196.4 335.42 209.15 318.67 209.15 318.67zM218.15 324.67C218.15 324.67 212.4 335.01 215.65 334.47 218.9 333.93 218.15 324.67 218.15 324.67z" opacity=".1"/>
    <path fill="#0E8C4D" d="M587.77,100.39 C587.77,100.39 549.77,98.1 554.21,124.76 C554.21,124.76 553.32,129.47 557.59,131.61 C557.59,131.61 557.66,129.61 561.49,130.3 C562.853936,130.529547 564.240266,130.596682 565.62,130.5 C567.489808,130.375294 569.267203,129.641153 570.68,128.41 C570.68,128.41 581.37,124 585.53,106.52 C585.53,106.52 588.61,102.7 588.53,101.72 L582.11,104.47 C582.11,104.47 584.3,109.1 582.57,112.95 C582.57,112.95 582.37,104.64 581.13,104.83 C580.88,104.83 577.8,106.44 577.8,106.44 C577.8,106.44 581.57,114.5 578.72,120.37 C578.72,120.37 579.8,110.43 576.62,107.02 L572.1,109.66 C572.1,109.66 576.51,117.99 573.52,124.79 C573.52,124.79 574.29,114.36 571.15,110.3 L567.05,113.49 C567.05,113.49 571.2,121.71 568.67,127.35 C568.67,127.35 568.34,115.21 566.16,114.29 C566.16,114.29 562.58,117.45 562.04,118.75 C562.04,118.75 564.87,124.75 563.11,127.86 C563.11,127.86 562.03,119.77 561.11,119.73 C561.11,119.73 557.54,125.09 557.17,128.73 C557.342899,125.336511 558.401332,122.047439 560.24,119.19 C558.182474,119.579277 556.284202,120.56318 554.78,122.02 C554.78,122.02 555.33,118.23 561.12,117.9 C561.12,117.9 564.12,113.83 564.86,113.58 C564.86,113.58 559.1,113.1 555.61,114.65 C555.61,114.65 558.68,111.08 565.92,112.65 L569.92,109.35 C569.92,109.35 562.34,108.35 559.12,109.46 C559.12,109.46 562.82,106.3 571.01,108.6 L575.41,105.97 C575.41,105.97 568.95,104.57 565.1,105.08 C565.1,105.08 569.16,102.89 576.7,105.26 L579.85,103.85 C579.85,103.85 575.11,102.92 573.73,102.77 C572.35,102.62 572.27,102.24 572.27,102.24 C575.268688,101.740911 578.347127,102.087192 581.16,103.24 C581.16,103.24 587.91,100.81 587.77,100.39 Z"/>
    <path fill="#0E8C4D" d="M703.23 233.73C703.23 233.73 665.23 231.44 669.67 258.1 669.67 258.1 668.78 262.81 673.05 264.95 673.05 264.95 673.12 262.95 676.96 263.64 678.323936 263.869547 679.710266 263.936682 681.09 263.84 682.937843 263.706027 684.692344 262.976154 686.09 261.76 686.09 261.76 696.79 257.34 700.95 239.86 700.95 239.86 704.02 236.05 703.9 235.07L697.48 237.81C697.48 237.81 699.67 242.44 697.95 246.29 697.95 246.29 697.74 237.98 696.51 238.17 696.26 238.17 693.17 239.78 693.17 239.78 693.17 239.78 696.95 247.85 694.1 253.71 694.1 253.71 695.18 243.77 691.99 240.36L687.52 242.97C687.52 242.97 691.93 251.3 688.94 258.1 688.94 258.1 689.71 247.67 686.57 243.61L682.48 246.81C682.48 246.81 686.62 255.02 684.1 260.66 684.1 260.66 683.77 248.52 681.59 247.6 681.59 247.6 678.01 250.76 677.46 252.06 677.46 252.06 680.3 258.06 678.54 261.17 678.54 261.17 677.46 253.08 676.54 253.04 676.54 253.04 672.97 258.4 672.6 262.04 672.778662 258.646096 673.840341 255.357649 675.68 252.5 673.619877 252.890226 671.718653 253.873858 670.21 255.33 670.21 255.33 670.77 251.54 676.56 251.21 676.56 251.21 679.51 247.14 680.3 246.89 680.3 246.89 674.54 246.41 671.05 247.96 671.05 247.96 674.12 244.39 681.35 246.01L685.35 242.71C685.35 242.71 677.76 241.71 674.55 242.82 674.55 242.82 678.25 239.66 686.44 241.96L690.84 239.33C690.84 239.33 684.37 237.94 680.52 238.44 680.52 238.44 684.59 236.25 692.13 238.62L695.28 237.21C695.28 237.21 690.54 236.28 689.15 236.13 687.76 235.98 687.69 235.6 687.69 235.6 690.691974 235.100612 693.773702 235.446873 696.59 236.6 696.59 236.6 703.35 234.15 703.23 233.73zM472.38 210.06C472.38 210.06 481.13 172.97 454.09 172.84 454.09 172.84 449.6 171.16 446.77 175 446.77 175 448.7 175.41 447.39 179.07 446.936931 180.364217 446.634928 181.706452 446.49 183.07 446.296296 184.928813 446.714086 186.800089 447.68 188.4 447.68 188.4 450.21 199.7 466.68 206.78 466.68 206.78 469.92 210.46 470.9 210.5L469.3 203.71C469.3 203.71 464.36 205.08 460.86 202.71 460.86 202.71 469.09 203.92 469.1 202.71 469.1 202.46 468.1 199.15 468.1 199.15 468.1 199.15 459.51 201.49 454.21 197.68 454.21 197.68 463.82 200.44 467.73 197.89L465.93 192.97C465.93 192.97 456.93 195.9 450.77 191.79 450.77 191.79 460.92 194.33 465.46 191.93L463.01 187.35C463.01 187.35 454.21 190.03 449.08 186.58 449.08 186.58 461.08 188.32 462.38 186.34 462.38 186.34 459.88 182.27 458.69 181.51 458.69 181.51 452.33 183.29 449.53 181.02 449.53 181.02 457.68 181.33 457.87 180.47 457.87 180.47 453.2 176.04 449.64 175.04 452.95758 175.795367 456.021378 177.401362 458.53 179.7 458.493329 177.604203 457.847006 175.564464 456.67 173.83 456.67 173.83 460.31 175.03 459.67 180.83 459.67 180.83 463.17 184.43 463.28 185.25 463.28 185.25 464.73 179.66 463.8 175.95 463.8 175.95 466.8 179.59 463.97 186.44L466.53 190.99C466.53 190.99 468.85 183.69 468.26 180.33 468.26 180.33 470.75 184.51 467.08 192.19L468.93 196.98C468.93 196.98 471.4 190.84 471.56 186.98 471.56 186.98 473.03 191.36 469.4 198.39L470.26 201.73C470.26 201.73 471.98 197.22 472.36 195.88 472.74 194.54 473.13 194.53 473.13 194.53 473.11476 197.572279 472.252549 200.550198 470.64 203.13 470.64 203.13 471.95 210.11 472.38 210.06zM389.16 222.7C389.16 222.7 358.64 199.87 347.73 224.6 347.73 224.6 344.4 228.05 346.79 232.18 346.79 232.18 347.93 230.57 350.79 233.24 351.80302 234.182438 352.924174 235.001485 354.13 235.68 355.763264 236.589434 357.648858 236.940569 359.5 236.68 359.5 236.68 370.86 238.87 383.94 226.56 383.94 226.56 388.61 225.06 389.05 224.18L382.16 222.97C382.16 222.97 381.44 228.04 377.89 230.31 377.89 230.31 382.28 223.25 381.14 222.74 380.91 222.63 377.47 222.24 377.47 222.24 377.47 222.24 376.19 231.06 370.59 234.39 370.59 234.39 376.96 226.68 376.17 222.08L370.94 221.8C370.94 221.8 370.05 231.19 363.81 235.23 363.81 235.23 370.18 226.94 369.81 221.82L364.63 222.24C364.63 222.24 363.58 231.37 358.37 234.69 358.37 234.69 364.76 224.37 363.45 222.41 363.45 222.41 358.72 223.08 357.55 223.86 357.55 223.86 356.64 230.4 353.44 232.06 353.44 232.06 356.99 224.71 356.27 224.2 356.27 224.2 350.34 226.71 348.01 229.57 350.025551 226.831628 352.721104 224.666913 355.83 223.29 353.895651 222.486034 351.76883 222.263622 349.71 222.65 349.71 222.65 352.25 219.79 357.27 222.7 357.27 222.7 361.97 220.93 362.77 221.15 362.77 221.15 358.22 217.58 354.45 216.96 354.45 216.96 358.99 215.66 364.14 220.96L369.33 220.43C369.33 220.43 363.56 215.43 360.25 214.59 360.25 214.59 365.08 213.98 370.65 220.4L375.77 220.63C375.77 220.63 371.14 215.91 367.65 214.21 367.65 214.21 372.24 214.61 377.24 220.74L380.65 221.29C380.65 221.29 377.2 217.91 376.12 217.03 375.04 216.15 375.19 215.78 375.19 215.78 377.971987 217.011934 380.357257 218.992158 382.08 221.5 382.08 221.5 389.03 223.11 389.16 222.7zM490.77 10.59C490.77 10.59 460.25-12.25 449.34 12.49 449.34 12.49 446.01 15.94 448.4 20.07 448.4 20.07 449.54 18.46 452.4 21.13 453.418327 22.0675702 454.542599 22.883087 455.75 23.56 457.383012 24.4701325 459.268842 24.8213112 461.12 24.56 461.12 24.56 472.48 26.75 485.56 14.43 485.56 14.43 490.23 12.94 490.66 12.05L483.77 10.86C483.77 10.86 483.06 15.93 479.5 18.2 479.5 18.2 483.9 11.14 482.76 10.63 482.53 10.52 479.09 10.13 479.09 10.13 479.09 10.13 477.77 18.97 472.17 22.28 472.17 22.28 478.53 14.57 477.75 9.97L472.52 9.69C472.52 9.69 471.62 19.08 465.39 23.11 465.39 23.11 471.76 14.82 471.39 9.7L466.22 10.12C466.22 10.12 465.16 19.26 459.95 22.58 459.95 22.58 466.35 12.26 465.04 10.3 465.04 10.3 460.31 10.97 459.14 11.75 459.14 11.75 458.23 18.29 455.03 19.95 455.03 19.95 458.58 12.6 457.86 12.08 457.86 12.08 451.93 14.6 449.6 17.46 451.612505 14.7187091 454.308911 12.5533085 457.42 11.18 455.483664 10.3700553 453.351878 10.1474871 451.29 10.54 451.29 10.54 453.84 7.68 458.86 10.59 458.86 10.59 463.56 8.81 464.36 9.04 464.36 9.04 459.81 5.47 456.04 4.84 456.04 4.84 460.57 3.55 465.72 8.84L470.91 8.31C470.91 8.31 465.15 3.31 461.83 2.46 461.83 2.46 466.66 1.86 472.24 8.28L477.36 8.5C477.36 8.5 472.73 3.78 469.23 2.09 469.23 2.09 473.83 2.49 478.83 8.62L482.23 9.17C482.23 9.17 478.77 5.83 477.69 4.97 476.61 4.11 476.76 3.73 476.76 3.73 479.542826 4.96058069 481.928433 6.94108498 483.65 9.45 483.65 9.45 490.6 10.97 490.77 10.59zM607.39 39.52C607.39 39.52 595.19 3.41 572.18 17.6 572.18 17.6 567.48 18.6 567.11 23.31 567.11 23.31 568.96 22.63 569.78 26.43 570.08465 27.7817197 570.544361 29.0937418 571.15 30.34 571.976487 32.0172151 573.323617 33.3818855 574.99 34.23 574.99 34.23 583.11 42.48 600.87 39.75 600.87 39.75 605.56 41.17 606.42 40.68L601.42 35.77C601.42 35.77 597.96 39.54 593.74 39.39 593.74 39.39 601.37 36.07 600.74 35 600.61 34.79 598 32.52 598 32.52 598 32.52 591.94 39.05 585.44 38.62 585.44 38.62 595.05 35.88 597.01 31.62L592.87 28.43C592.87 28.43 586.81 35.65 579.38 35.43 579.38 35.43 589.38 32.22 591.91 27.78L587.41 25.19C587.41 25.19 581.41 32.12 575.19 31.9 575.19 31.9 586.31 27.03 586.34 24.67 586.34 24.67 582.07 22.54 580.66 22.52 580.66 22.52 576.2 27.39 572.66 26.95 572.66 26.95 579.74 22.9 579.44 22.07 579.44 22.07 573.14 20.78 569.59 21.82 572.800859 20.7020595 576.248308 20.4435008 579.59 21.07 578.448881 19.3089831 576.819029 17.9189175 574.9 17.07 574.9 17.07 578.62 16.16 581.11 21.4 581.11 21.4 585.99 22.61 586.51 23.24 586.51 23.24 584.79 17.73 582.04 15.07 582.04 15.07 586.51 16.58 587.73 23.89L592.31 26.39C592.31 26.39 590.42 18.98 588.14 16.39 588.14 16.39 592.47 18.63 593.41 27.08L597.51 30.17C597.51 30.17 596.37 23.65 594.45 20.27 594.45 20.27 598.01 23.21 598.65 31.1L601.14 33.48C601.14 33.48 600.22 28.74 599.84 27.4 599.46 26.06 599.77 25.97 599.77 25.97 601.359706 28.5641393 602.200727 31.5475137 602.2 34.59 602.2 34.59 607.04 39.78 607.39 39.52zM527.77 41.3C527.77 41.3 489.87 37.08 493 63.97 493 63.97 491.87 68.63 496 70.97 496 70.97 496.17 68.97 500 69.87 501.353534 70.1612366 502.735615 70.2987737 504.12 70.28 505.989987 70.2462286 507.797994 69.6037719 509.27 68.45 509.27 68.45 520.18 64.58 525.27 47.33 525.27 47.33 528.53 43.68 528.46 42.69L521.91 45.11C521.91 45.11 523.91 49.84 521.91 53.6 521.91 53.6 522.12 45.29 520.91 45.42 520.66 45.42 517.5 46.86 517.5 46.86 517.5 46.86 520.86 55.11 517.72 60.86 517.72 60.86 519.3 50.98 516.29 47.42L511.64 49.82C511.64 49.82 515.64 58.37 512.29 65.01 512.29 65.01 513.59 54.63 510.66 50.42L506.41 53.42C506.41 53.42 510.13 61.83 507.32 67.34 507.32 67.34 507.61 55.2 505.48 54.17 505.48 54.17 501.74 57.17 501.13 58.41 501.13 58.41 503.66 64.51 501.75 67.56 501.75 67.56 501.08 59.43 500.2 59.35 500.2 59.35 496.36 64.52 495.8 68.17 496.146877 64.7860268 497.374295 61.551987 499.36 58.79 497.284907 59.0767593 495.338646 59.9630034 493.76 61.34 493.76 61.34 494.5 57.59 500.3 57.55 500.3 57.55 503.45 53.64 504.3 53.43 504.3 53.43 498.57 52.66 495 54.03 495 54.03 498.25 50.61 505.39 52.6L509.6 49.51C509.6 49.51 501.99 47.97 498.77 48.97 498.77 48.97 502.63 45.97 510.69 48.72L515.22 46.31C515.22 46.31 508.83 44.59 504.96 44.9 504.96 44.9 509.13 42.9 516.54 45.67L519.76 44.42C519.76 44.42 515.07 43.25 513.69 43.03 512.31 42.81 512.26 42.43 512.26 42.43 515.283137 42.083136 518.343239 42.5816141 521.1 43.87 521.1 43.87 527.84 41.72 527.77 41.3zM859.37 335.47C859.37 335.47 821.49 331.25 824.62 358.11 824.62 358.11 823.49 362.77 827.62 365.11 827.62 365.11 827.79 363.11 831.62 364 832.971969 364.301104 834.355206 364.438756 835.74 364.41 837.610916 364.381361 839.420512 363.73834 840.89 362.58 840.89 362.58 851.8 358.71 856.84 341.47 856.84 341.47 860.1 337.81 860.03 336.83L853.48 339.24C853.48 339.24 855.48 343.98 853.48 347.74 853.48 347.74 853.69 339.42 852.48 339.56 852.23 339.56 849.07 340.99 849.07 340.99 849.07 340.99 852.43 349.24 849.29 354.99 849.29 354.99 850.87 345.12 847.86 341.55L843.21 343.96C843.21 343.96 847.21 352.51 843.87 359.15 843.87 359.15 845.16 348.77 842.23 344.55L837.98 347.55C837.98 347.55 841.7 355.96 838.89 361.46 838.89 361.46 839.18 349.32 837.05 348.3 837.05 348.3 833.32 351.3 832.7 352.54 832.7 352.54 835.24 358.64 833.32 361.69 833.32 361.69 832.65 353.56 831.77 353.48 831.77 353.48 827.93 358.65 827.37 362.3 827.716877 358.916027 828.944295 355.681987 830.93 352.92 828.853425 353.201638 826.905755 354.088523 825.33 355.47 825.33 355.47 826.07 351.71 831.87 351.67 831.87 351.67 835.03 347.76 835.87 347.56 835.87 347.56 830.14 346.78 826.57 348.15 826.57 348.15 829.82 344.74 836.97 346.73L841.17 343.64C841.17 343.64 833.65 342.22 830.38 343.2 830.38 343.2 834.24 340.2 842.3 342.94L846.83 340.54C846.83 340.54 840.44 338.82 836.57 339.13 836.57 339.13 840.74 337.13 848.15 339.9L851.37 338.64C851.37 338.64 846.68 337.47 845.3 337.26 843.92 337.05 843.87 336.66 843.87 336.66 846.892279 336.306842 849.953204 336.801991 852.71 338.09 852.71 338.09 859.47 335.9 859.37 335.47zM917.28 370.85C917.28 370.85 879.4 366.64 882.53 393.49 882.53 393.49 881.41 398.15 885.53 400.49 885.53 400.49 885.7 398.49 889.53 399.39 890.87963 399.68369 892.259068 399.817942 893.64 399.79 895.50143 399.751907 897.300759 399.113548 898.77 397.97 898.77 397.97 909.67 394.1 914.71 376.85 914.71 376.85 917.98 373.2 917.9 372.21L911.35 374.62C911.35 374.62 913.35 379.36 911.35 383.12 911.35 383.12 911.56 374.81 910.35 374.94 910.1 374.94 906.94 376.37 906.94 376.37 906.94 376.37 910.3 384.62 907.16 390.37 907.16 390.37 908.74 380.5 905.73 376.94L901.08 379.34C901.08 379.34 905.08 387.89 901.74 394.53 901.74 394.53 903.03 384.15 900.1 379.94L895.85 382.94C895.85 382.94 899.57 391.35 896.77 396.86 896.77 396.86 897.05 384.71 894.92 383.69 894.92 383.69 891.19 386.69 890.57 387.93 890.57 387.93 893.11 394.03 891.19 397.08 891.19 397.08 890.52 388.95 889.64 388.87 889.64 388.87 885.8 394.04 885.25 397.69 885.596194 394.307512 886.819919 391.074119 888.8 388.31 886.724907 388.596759 884.778646 389.483003 883.2 390.86 883.2 390.86 883.95 387.1 889.75 387.07 889.75 387.07 892.9 383.16 893.75 382.95 893.75 382.95 888.02 382.18 884.45 383.55 884.45 383.55 887.7 380.13 894.85 382.12L899.05 379.03C899.05 379.03 891.53 377.61 888.26 378.59 888.26 378.59 892.12 375.59 900.18 378.34L904.71 375.93C904.71 375.93 898.32 374.21 894.45 374.52 894.45 374.52 898.62 372.52 906.03 375.29L909.25 374.04C909.25 374.04 904.56 372.87 903.19 372.65 901.82 372.43 901.75 372.05 901.75 372.05 904.773137 371.703136 907.833239 372.201614 910.59 373.49 910.59 373.49 917.38 371.28 917.28 370.85zM788.71 72.84C788.71 72.84 758.19 50.01 747.28 74.74 747.28 74.74 743.95 78.19 746.34 82.32 746.34 82.32 747.48 80.71 750.34 83.38 751.35302 84.322438 752.474174 85.1414846 753.68 85.82 755.313515 86.7287378 757.198875 87.0798289 759.05 86.82 759.05 86.82 770.41 89.01 783.5 76.7 783.5 76.7 788.16 75.2 788.6 74.32L781.73 73.08C781.73 73.08 781.01 78.15 777.46 80.42 777.46 80.42 781.85 73.36 780.71 72.85 780.48 72.74 777.05 72.35 777.05 72.35 777.05 72.35 775.76 81.17 770.16 84.5 770.16 84.5 776.53 76.79 775.74 72.19L770.51 71.91C770.51 71.91 769.62 81.3 763.38 85.34 763.38 85.34 769.76 77.05 769.38 71.93L764.2 72.35C764.2 72.35 763.2 81.48 757.94 84.8 757.94 84.8 764.34 74.48 763.02 72.52 763.02 72.52 758.29 73.19 757.12 73.97 757.12 73.97 756.22 80.51 753.02 82.17 753.02 82.17 756.56 74.82 755.84 74.31 755.84 74.31 749.91 76.82 747.58 79.68 749.595551 76.941628 752.291104 74.776913 755.4 73.4 753.465651 72.5960345 751.33883 72.3736218 749.28 72.76 749.28 72.76 751.83 69.9 756.85 72.81 756.85 72.81 761.54 71.04 762.34 71.26 762.34 71.26 757.79 67.69 754.02 67.07 754.02 67.07 758.56 65.77 763.71 71.07L768.9 70.54C768.9 70.54 763.14 65.54 759.82 64.7 759.82 64.7 764.65 64.09 770.22 70.51L775.35 70.74C775.35 70.74 770.71 66.02 767.22 64.32 767.22 64.32 771.82 64.72 776.81 70.85L780.22 71.4C780.22 71.4 776.77 68.02 775.69 67.14 774.61 66.26 774.77 65.97 774.77 65.97 777.548046 67.2039427 779.929584 69.1839429 781.65 71.69 781.65 71.69 788.58 73.25 788.71 72.84zM812.29 237.66C812.29 237.66 801.77 201.03 778.11 214.18 778.11 214.18 773.37 214.91 772.78 219.65 772.78 219.65 774.66 219.06 775.31 222.89 775.551028 224.26595 775.953822 225.608595 776.51 226.89 777.251736 228.61318 778.537201 230.046157 780.17 230.97 780.17 230.97 787.91 239.57 805.77 237.65 805.77 237.65 810.39 239.27 811.27 238.83L806.54 233.69C806.54 233.69 802.91 237.31 798.71 236.97 798.71 236.97 806.47 233.97 805.87 232.9 805.75 232.68 803.25 230.29 803.25 230.29 803.25 230.29 796.91 236.55 790.43 235.82 790.43 235.82 800.16 233.52 802.3 229.38L798.3 226C798.3 226 791.92 232.94 784.51 232.4 784.51 232.4 794.59 229.63 797.37 225.32L792.99 222.53C792.99 222.53 786.64 229.18 780.48 228.68 780.48 228.68 791.81 224.31 791.95 221.96 791.95 221.96 787.77 219.64 786.36 219.56 786.36 219.56 781.69 224.22 778.14 223.62 778.14 223.62 785.4 219.89 785.14 219.05 785.14 219.05 778.9 217.48 775.31 218.35 778.561472 217.385829 782.008118 217.285876 785.31 218.06 784.252379 216.250559 782.687996 214.790468 780.81 213.86 780.81 213.86 784.57 213.11 786.81 218.46 786.81 218.46 791.62 219.88 792.12 220.54 792.12 220.54 790.65 214.95 788.02 212.18 788.02 212.18 792.42 213.88 793.31 221.24L797.77 223.95C797.77 223.95 796.21 216.45 794.05 213.81 794.05 213.81 798.27 216.24 798.84 224.72L802.84 227.99C802.84 227.99 801.99 221.43 800.23 217.99 800.23 217.99 803.66 221.09 803.94 228.99L806.32 231.49C806.32 231.49 805.62 226.71 805.32 225.35 805.02 223.99 805.32 223.8 805.32 223.8 806.799785 226.459921 807.509632 229.479368 807.37 232.52 807.37 232.52 811.93 237.9 812.29 237.66zM577.87 320.2C577.87 320.2 557.44 288.02 538.47 307.28 538.47 307.28 534.13 309.28 534.89 314.03 534.89 314.03 536.54 312.93 538.24 316.43 538.850854 317.670361 539.609715 318.832157 540.5 319.89 541.692342 321.333828 543.326176 322.345751 545.15 322.77 545.15 322.77 555 328.85 571.6 321.97 571.6 321.97 576.49 322.23 577.21 321.56L571.21 317.96C571.21 317.96 568.74 322.46 564.61 323.31 564.61 323.31 571.23 318.31 570.34 317.39 570.17 317.21 567.09 315.63 567.09 315.63 567.09 315.63 562.76 323.41 556.34 324.54 556.34 324.54 565.03 319.59 565.93 315.01L561.14 312.9C561.14 312.9 556.97 321.35 549.71 322.9 549.71 322.9 558.61 317.41 560.06 312.49L555.06 311.05C555.06 311.05 550.84 319.22 544.79 320.47 544.79 320.47 554.43 313.09 553.9 310.79 553.9 310.79 549.24 309.74 547.9 310.06 547.9 310.06 544.73 315.85 541.15 316.27 541.15 316.27 547.07 310.65 546.58 309.91 546.58 309.91 540.15 310.16 536.95 312.01 539.804458 310.160743 543.093738 309.091899 546.49 308.91 544.969432 307.470836 543.061051 306.507955 541 306.14 541 306.14 544.39 304.37 548 308.87 548 308.87 553 308.87 553.69 309.37 553.69 309.37 550.69 304.37 547.4 302.5 547.4 302.5 552.1 302.9 555.02 309.71L560.07 311.05C560.07 311.05 556.46 304.3 553.65 302.37 553.65 302.37 558.38 303.51 561.31 311.5L566.03 313.5C566.03 313.5 563.37 307.45 560.7 304.62 560.7 304.62 564.86 306.62 567.35 314.13L570.35 315.86C570.35 315.86 568.35 311.47 567.64 310.26 566.93 309.05 567.21 308.77 567.21 308.77 569.373943 310.907476 570.900827 313.604625 571.62 316.56 571.62 316.56 577.6 320.54 577.87 320.2z" opacity=".1"/>
    <path fill="#0E8C4D" d="M712.14 155.78C712.14 155.78 692.71 122.99 673.14 141.65 673.14 141.65 668.74 143.55 669.36 148.29 669.36 148.29 671.03 147.23 672.63 150.78 673.202149 152.04193 673.924 153.230465 674.78 154.32 675.928341 155.794675 677.531216 156.849198 679.34 157.32 679.34 157.32 688.99 163.7 705.8 157.32 705.8 157.32 710.68 157.73 711.42 157.08L705.55 153.3C705.55 153.3 702.95 157.71 698.79 158.44 698.79 158.44 705.56 153.61 704.71 152.7 704.53 152.51 701.51 150.83 701.51 150.83 701.51 150.83 696.94 158.48 690.51 159.41 690.51 159.41 699.35 154.73 700.38 150.19L695.66 147.97C695.66 147.97 691.23 156.3 683.92 157.63 683.92 157.63 692.99 152.42 694.59 147.55L689.65 145.95C689.65 145.95 685.17 153.95 679.09 155.05 679.09 155.05 688.95 147.97 688.49 145.66 688.49 145.66 683.87 144.46 682.49 144.74 682.49 144.74 679.14 150.43 675.55 150.74 675.55 150.74 681.64 145.32 681.18 144.56 681.18 144.56 674.74 144.61 671.49 146.36 674.401369 144.60392 677.720929 143.638732 681.12 143.56 679.6419 142.073471 677.761419 141.051545 675.71 140.62 675.71 140.62 679.16 138.95 682.71 143.56 682.71 143.56 687.71 143.73 688.38 144.24 688.38 144.24 685.55 139.24 682.31 137.18 682.31 137.18 686.99 137.72 689.7 144.62L694.7 146.12C694.7 146.12 691.31 139.26 688.55 137.24 688.55 137.24 693.25 138.53 695.93 146.6L700.58 148.77C700.58 148.77 698.11 142.64 695.58 139.77 695.58 139.77 699.67 141.9 701.94 149.48L704.87 151.3C704.87 151.3 702.99 146.85 702.33 145.62 701.67 144.39 701.95 144.12 701.95 144.12 704.046179 146.323208 705.489752 149.064957 706.12 152.04 706.12 152.04 711.85 156.11 712.14 155.78zM589.21 224.73C589.21 224.73 590.21 186.63 563.74 192 563.74 192 559 191.27 557 195.61 557 195.61 559 195.61 558.44 199.46 558.256807 200.832805 558.236667 202.222463 558.38 203.6 558.560775 205.468475 559.351448 207.225525 560.63 208.6 560.63 208.6 565.4 219.14 583.01 222.72 583.01 222.72 586.92 225.67 587.9 225.51L584.9 219.19C584.9 219.19 580.35 221.53 576.44 219.94 576.44 219.94 584.74 219.45 584.51 218.23 584.51 217.98 582.79 214.94 582.79 214.94 582.79 214.94 574.85 218.99 568.9 216.33 568.9 216.33 578.9 217.08 582.17 213.79L579.38 209.36C579.38 209.36 571.2 214.04 564.3 211.28 564.3 211.28 574.75 211.7 578.71 208.43L575.38 204.43C575.38 204.43 567.31 208.85 561.59 206.51 561.59 206.51 573.71 205.78 574.59 203.57 574.59 203.57 571.31 200.1 569.99 199.57 569.99 199.57 564.13 202.57 560.93 200.95 560.93 200.95 568.93 199.61 568.98 198.72 568.98 198.72 563.51 195.33 559.82 195.08 563.222597 195.140833 566.549821 196.092454 569.47 197.84 569.014399 195.796002 567.971706 193.929582 566.47 192.47 566.47 192.47 570.28 192.9 570.8 198.67 570.8 198.67 574.97 201.49 575.24 202.27 575.24 202.27 575.53 196.5 573.86 193.06 573.86 193.06 577.54 196.01 576.16 203.29L579.59 207.23C579.59 207.23 580.37 199.61 579.12 196.44 579.12 196.44 582.4 200.03 580.38 208.29L583.15 212.6C583.15 212.6 584.33 206.09 583.7 202.26 583.7 202.26 586.02 206.26 583.9 213.87L585.42 216.97C585.42 216.97 586.19 212.2 586.29 210.81 586.39 209.42 586.77 209.33 586.77 209.33 587.371971 212.313094 587.133083 215.404789 586.08 218.26 586.08 218.26 588.77 224.86 589.21 224.73z"/>
    <ellipse cx="632.97" cy="704.3" fill="#0E8C4D" opacity=".1" rx="26.93" ry="4.55"/>
    <ellipse cx="534.8" cy="773.38" fill="#0E8C4D" opacity=".1" rx="26.93" ry="4.55"/>
    <ellipse cx="27.14" cy="737.99" fill="#0E8C4D" opacity=".1" rx="26.93" ry="4.55"/>
    <ellipse cx="739.06" cy="768.83" fill="#0E8C4D" opacity=".1" rx="26.93" ry="4.55"/>
    <ellipse cx="767.1" cy="711.1" fill="#0E8C4D" rx="40.21" ry="6.8"/>
    <path fill="#0E8C4D" d="M783.77,699.97 C785.60562,698.47844 786.941895,696.461816 787.6,694.19 C788.1,691.89 787.12,689.14 784.93,688.3 C782.47,687.36 779.84,689.06 777.84,690.78 C775.84,692.5 773.57,694.47 770.96,694.11 C773.685285,691.634241 774.914683,687.911895 774.2,684.3 C774.086694,683.56412 773.775618,682.87284 773.3,682.3 C771.93,680.84 769.46,681.47 767.82,682.62 C762.62,686.28 761.17,693.34 761.14,699.7 C760.62,697.41 761.06,695.02 761.05,692.7 C761.04,690.38 760.39,687.7 758.4,686.48 C757.178515,685.798916 755.798291,685.45386 754.4,685.48 C752.06,685.4 749.45,685.63 747.86,687.34 C745.86,689.46 746.39,693.03 748.11,695.34 C749.83,697.65 752.46,699.14 754.88,700.76 C756.816838,701.916624 758.470521,703.491724 759.72,705.37 C759.862387,705.631625 759.979581,705.906194 760.07,706.19 L774.73,706.19 C778.011937,704.53702 781.053262,702.444427 783.77,699.97 Z"/>
    <path fill="#A8A8A8" d="M9.06,716.84 C9.06,716.84 24.41,716.37 29.06,713.07 C33.71,709.77 52.69,705.84 53.84,711.13 C54.99,716.42 76.92,737.42 59.58,737.56 C42.24,737.7 19.29,734.86 14.67,732.04 C10.05,729.22 9.06,716.84 9.06,716.84 Z"/>
    <path fill="#000000" d="M59.87,735.72 C42.53,735.86 19.58,733.02 14.96,730.2 C11.44,728.06 10.04,720.37 9.57,716.82 L9.06,716.82 C9.06,716.82 10.06,729.21 14.65,732.02 C19.24,734.83 42.22,737.68 59.56,737.54 C64.56,737.54 66.29,735.72 66.2,733.08 C65.5,734.69 63.59,735.69 59.87,735.72 Z" opacity=".2"/>
  </g>
</svg>
