<svg xmlns="http://www.w3.org/2000/svg" width="136" height="117" viewBox="0 0 136 117">
  <path fill="#000000" d="M63.2424346,66.9421733 C79.8868091,48.3393522 108.188602,44.6997364 129.145536,59.3739399 C151.765795,75.2128159 157.263193,106.390105 141.424317,129.010364 C125.585441,151.630623 94.4081517,157.12802 71.7878926,141.289144 C51.2854648,126.93319 44.8497227,99.9765009 55.6179733,78.211629 L72.3267558,89.9112444 C67.6933228,102.397894 71.8395425,116.909818 83.2594213,124.906103 C96.8315768,134.409429 115.53795,131.110991 125.041276,117.538835 C134.544601,103.96668 131.246163,85.2603064 117.674007,75.7569808 C105.785042,67.4322373 89.9563606,68.9308597 79.8251919,78.553545 L88.2751515,84.4702704 C95.0169047,79.2852707 104.602504,78.8119616 111.938243,83.9485013 C120.986347,90.2840516 123.185306,102.754967 116.849755,111.803071 C110.514205,120.851175 98.0432893,123.050133 88.9951857,116.714583 C80.5000087,110.766196 78.0424558,99.4093923 83.0174123,90.5549585 L44.4320432,63.5371922 L34.0124839,66.3670359 C33.7260789,66.4448205 33.4199199,66.3913719 33.1768121,66.221146 L15.649757,53.9485699 C15.4581275,53.8143894 15.3196052,53.6172718 15.2582915,53.3915132 C15.1135402,52.8585352 15.4282602,52.3091271 15.9612381,52.1643759 L28.1710694,48.848313 C28.6369272,48.7217908 28.9458996,48.2805326 28.9054587,47.7994962 L27.8455304,35.1918476 C27.8259324,34.9587335 27.8886826,34.726126 28.022863,34.5344965 C28.3396406,34.0820913 28.9631863,33.9721433 29.4155915,34.2889208 L46.9426466,46.5614969 C47.1857544,46.7317228 47.3406922,47.0011377 47.3655549,47.2968742 L48.1273672,56.3584892 L63.2424346,66.9421733 Z" transform="translate(-15 -34)"/>
</svg>
