<svg xmlns="http://www.w3.org/2000/svg" width="135" height="115" viewBox="0 0 135 115">
  <path fill="#222222" fill-rule="evenodd" d="M70.5347755,50.3962532 C72.5262426,48.419868 74.967458,46.8331371 77.7770686,45.8105224 C88.1566267,42.0326722 99.6334737,47.3844139 103.411324,57.763972 C107.189174,68.1435301 101.837432,79.6203771 91.4578743,83.3982273 C81.0783163,87.1760774 69.6014692,81.8243358 65.8236191,71.4447777 C64.4896872,67.7798302 64.2939832,63.9780786 65.0559397,60.4267504 L80.0657681,70.9367454 L81.9924305,68.1851863 L29.0503868,31.1147682 L19.4527632,33.7213828 C19.1663581,33.7991674 18.8601992,33.7457188 18.6170914,33.5754928 L11.6837031,28.7206821 C11.5878883,28.6535918 11.5186271,28.555033 11.4879703,28.4421537 C11.4155947,28.1756647 11.5729546,27.9009607 11.8394436,27.8285851 L25.4815781,24.1235235 C25.714507,24.0602625 25.8689932,23.8396333 25.8487728,23.5991152 L24.664507,9.51249641 C24.654708,9.39593933 24.6860831,9.2796356 24.7531733,9.18382082 C24.9115621,8.95761823 25.223335,8.90264426 25.4495376,9.06103302 L32.3829258,13.9158438 C32.6260337,14.0860697 32.7809715,14.3554845 32.8058341,14.6512211 L33.6389983,24.5615519 L45.8002312,33.0769388 C51.3148812,26.2740148 58.6882289,20.8329587 67.5164643,17.6197438 C93.4653595,8.17511834 122.157477,21.5544725 131.602103,47.5033677 C141.046728,73.4522629 127.667374,102.14438 101.718479,111.589006 C75.7695834,121.033631 47.0774659,107.654277 37.6328404,81.705382 C32.8002136,68.4278489 33.9432816,54.4320949 39.6882953,42.6641346 L56.4142958,54.3758062 C54.0929936,60.7659025 53.9195048,67.9765366 56.4266929,74.8649791 C62.0934681,90.4343163 79.3087387,98.4619287 94.8780758,92.7951535 C110.447413,87.1283782 118.475025,69.9131077 112.80825,54.3437705 C107.141475,38.7744334 89.9262043,30.7468209 74.3568672,36.4135962 C69.5401583,38.1667349 65.4452732,41.0251883 62.2543934,44.5982672 L70.5347755,50.3962532 Z M13.1963784,1.4824263 C13.1865794,1.36586922 13.2179545,1.2495655 13.2850447,1.15375071 C13.4434334,0.927548121 13.7552063,0.872574149 13.9814089,1.03096291 L20.9147972,5.88577366 C21.157905,6.05599958 21.3128429,6.32541439 21.3377055,6.62115097 L22.5721646,21.3048094 C22.592385,21.5453276 22.4378988,21.7659567 22.2049699,21.8292178 L7.98463454,25.6913127 C7.69822953,25.7690973 7.39207057,25.7156486 7.14896276,25.5454227 L0.215574458,20.690612 C0.119759675,20.6235217 0.050498519,20.5249629 0.0198416845,20.4120836 C-0.0525339466,20.1455946 0.104826018,19.8708906 0.371315004,19.798515 L14.0134495,16.0934534 C14.2463784,16.0301923 14.4008646,15.8095632 14.3806441,15.5690451 L13.1963784,1.4824263 Z"/>
</svg>
