<svg width="39" height="31" viewBox="0 0 39 31" fill="none" xmlns="http://www.w3.org/2000/svg">
<path fill-rule="evenodd" clip-rule="evenodd" d="M30.0491 21.3209L14.2077 23.4306C13.1254 23.5748 12.0483 23.2565 11.2356 22.5523L7.9576 19.7121L2.5426 20.4333C2.11847 20.4897 1.94687 21.0297 2.26536 21.3057L12.2088 29.9211C12.7168 30.3612 13.3899 30.5602 14.0664 30.4701L36.4577 27.488C36.8918 27.4302 37.0571 26.8701 36.7191 26.6025L30.0491 21.3209ZM32.1207 21.045L37.6447 25.4191C37.8982 25.6198 38.0809 25.8617 38.199 26.1237C38.0809 25.8616 37.8982 25.6196 37.6446 25.4188L32.1209 21.045H32.1207ZM0.740219 21.6423C0.351109 20.524 1.06094 19.1384 2.40119 18.9599L6.46485 18.4187L6.46456 18.4185L2.40109 18.9596C1.06073 19.1381 0.350899 20.5239 0.740219 21.6423Z" fill="#198CFF"/>
<path fill-rule="evenodd" clip-rule="evenodd" d="M30.0484 12.8073L14.2077 14.917C13.1254 15.0611 12.0483 14.7428 11.2356 14.0386L7.95827 11.199L2.5426 11.9203C2.11847 11.9767 1.94687 12.5168 2.26536 12.7927L12.2088 21.4081C12.7168 21.8482 13.3899 22.0472 14.0664 21.9571L36.4577 18.975C36.8918 18.9172 37.0571 18.3571 36.7191 18.0895L30.0484 12.8073ZM37.6446 16.906L37.6447 16.9061C37.6552 16.9145 37.6657 16.9229 37.676 16.9314C37.6656 16.9229 37.6552 16.9144 37.6446 16.906ZM1.06704 13.7072C0.112462 12.5584 0.815712 10.6581 2.40119 10.4469L6.46552 9.9056L6.46539 9.9055L2.40109 10.4468C0.815562 10.658 0.112322 12.5584 1.06704 13.7072Z" fill="#389BFF"/>
<path fill-rule="evenodd" clip-rule="evenodd" d="M2.54216 3.4028L24.1291 0.52787C24.7707 0.44242 25.4109 0.61643 25.9106 1.01205L36.7218 9.5729C37.0629 9.8429 36.8961 10.4081 36.4581 10.4664L14.0668 13.4484C13.3891 13.5387 12.7148 13.3394 12.2059 12.8985L2.26244 4.2831C1.94109 4.0046 2.11424 3.45979 2.54216 3.4028Z" fill="#56ABFF"/>
</svg>
