<?xml version="1.0" standalone="no"?>
<!DOCTYPE svg PUBLIC "-//W3C//DTD SVG 20010904//EN"
 "http://www.w3.org/TR/2001/REC-SVG-20010904/DTD/svg10.dtd">
<svg version="1.0" xmlns="http://www.w3.org/2000/svg"
 width="520.000000pt" height="520.000000pt" viewBox="0 0 520.000000 520.000000"
 preserveAspectRatio="xMidYMid meet">
<metadata>
Created by potrace 1.11, written by Peter Selinger 2001-2013
</metadata>
<g transform="translate(0.000000,520.000000) scale(0.100000,-0.100000)"
fill="#000000" stroke="none">
<path d="M502 4811 c-7 -4 -13 -16 -14 -27 -1 -19 11 -191 17 -241 1 -16 6
-68 10 -117 4 -50 9 -99 11 -110 6 -30 -21 -63 -58 -71 -71 -15 -431 -116
-449 -126 -22 -11 -24 -29 -7 -51 11 -14 493 -355 644 -455 l51 -34 84 21 c46
12 129 34 184 50 55 15 111 31 125 34 21 4 64 -21 243 -147 119 -84 336 -235
482 -337 146 -102 331 -231 411 -287 80 -57 149 -103 154 -103 4 0 10 -4 12
-8 2 -4 39 -32 83 -62 128 -88 123 -79 93 -147 -50 -114 -60 -159 -64 -298 -8
-299 153 -567 421 -700 167 -82 324 -101 525 -62 72 14 195 72 270 126 264
193 379 546 279 851 -159 487 -735 689 -1157 407 -23 -15 -47 -25 -54 -21 -33
21 -285 198 -296 209 -17 16 10 43 114 115 127 88 252 143 409 181 125 30 354
32 483 5 227 -49 422 -155 587 -321 169 -169 273 -368 319 -610 15 -81 16
-324 2 -390 -4 -16 -12 -50 -17 -73 -56 -254 -246 -530 -466 -680 -114 -78
-309 -162 -412 -178 -18 -3 -43 -8 -55 -11 -41 -10 -312 -12 -366 -2 -30 6
-68 12 -84 15 -40 8 -192 62 -241 86 -46 23 -158 89 -165 97 -3 4 -23 20 -45
36 -22 16 -69 59 -105 95 -175 175 -278 380 -326 650 -9 51 -10 214 -1 288 4
42 20 121 34 176 21 82 23 100 12 107 -8 4 -151 104 -319 222 l-305 214 -21
-41 c-47 -90 -122 -317 -140 -426 -3 -14 -9 -50 -14 -80 -31 -170 -31 -431 0
-600 5 -30 12 -68 14 -85 31 -181 145 -465 260 -645 283 -442 747 -757 1260
-855 124 -24 201 -30 366 -30 190 0 270 9 435 47 102 23 257 75 343 115 31 14
59 27 62 27 15 3 175 96 237 137 215 145 412 352 555 581 131 211 229 474 262
701 4 27 10 59 13 70 2 12 6 101 8 197 2 152 -9 302 -29 395 -41 190 -83 317
-150 460 -179 378 -466 679 -839 879 -162 87 -401 170 -552 191 -22 3 -46 8
-54 11 -29 10 -199 19 -326 18 -101 -1 -253 -15 -315 -29 -3 -1 -25 -5 -50 -9
-25 -5 -97 -24 -160 -43 -302 -90 -559 -243 -785 -464 l-90 -88 -150 105 c-82
57 -212 148 -288 201 -88 61 -139 103 -142 117 -2 11 -6 50 -9 86 -13 162 -19
226 -22 240 -1 8 -3 18 -3 21 -1 3 -34 28 -73 55 -40 27 -77 53 -83 57 -10 8
-123 87 -295 206 -52 36 -128 89 -169 118 -75 54 -86 59 -109 44z"/>
</g>
</svg>
