<svg xmlns="http://www.w3.org/2000/svg" width="20" height="20" viewBox="0 0 20 20">
  <path fill="currentColor" d="M6.21695194,9.75248584 C5.95152797,10.5730736 5.8838455,11.4436992 6.01390452,12.2898061 C5.81241505,12.1462308 5.62010131,11.9840623 5.43933983,11.8033009 L3.31801948,9.68198052 C1.56066017,7.9246212 1.56066017,5.0753788 3.31801948,3.31801948 C5.0753788,1.56066017 7.9246212,1.56066017 9.68198052,3.31801948 L11.8033009,5.43933983 C13.5606602,7.19669914 13.5606602,10.0459415 11.8033009,11.8033009 C11.4313958,12.1752059 11.0105896,12.4684057 10.5615799,12.6829003 L10.3890873,12.5104076 C9.80330086,11.9246212 9.80330086,10.9748737 10.3890873,10.3890873 C11.365398,9.41277657 11.365398,7.82986412 10.3890873,6.85355339 L8.26776695,4.73223305 C7.29145622,3.75592232 5.70854378,3.75592232 4.73223305,4.73223305 C3.75592232,5.70854378 3.75592232,7.29145622 4.73223305,8.26776695 L6.21695194,9.75248584 Z M13.8541159,10.318582 C14.1195398,9.49799423 14.1872223,8.62736857 14.0571633,7.78126173 C14.2586528,7.92483706 14.4509665,8.08700547 14.631728,8.26776695 L16.7530483,10.3890873 C18.5104076,12.1464466 18.5104076,14.995689 16.7530483,16.7530483 C14.995689,18.5104076 12.1464466,18.5104076 10.3890873,16.7530483 L8.26776695,14.631728 C6.51040764,12.8743687 6.51040764,10.0251263 8.26776695,8.26776695 C8.63967198,7.89586192 9.06047816,7.60266212 9.50948787,7.38816753 L9.68198052,7.56066017 C10.267767,8.14644661 10.267767,9.09619408 9.68198052,9.68198052 C8.70566979,10.6582912 8.70566979,12.2412037 9.68198052,13.2175144 L11.8033009,15.3388348 C12.7796116,16.3151455 14.362524,16.3151455 15.3388348,15.3388348 C16.3151455,14.362524 16.3151455,12.7796116 15.3388348,11.8033009 L13.8541159,10.318582 Z" transform="matrix(-1 0 0 1 20.071 0)"/>
</svg>
